<?xml version="1.0" encoding="UTF-8"?>
<svg xmlns="http://www.w3.org/2000/svg" version="1.1" viewBox="0 0 22 22">
  <defs>
    <style>
      .cls-1 {
        fill: #4c6586;
      }
    </style>
  </defs>
  <!-- Generator: Adobe Illustrator 28.7.1, SVG Export Plug-In . SVG Version: 1.2.0 Build 142)  -->
  <g>
    <g id="Capa_1">
      <polygon class="cls-1" points="2.4 11.5 5.3 11.5 8.7 4.4 10.1 12.9 13.3 8.5 16.6 11.5 19.6 11.5 19.6 13.4 15.8 13.4 13.5 11.1 9.2 17.2 8 10 6.3 13.3 2.4 13.3 2.4 11.5"/>
      <path class="cls-1" d="M4.7,10.6l3.2-6.6s-.9.5-1.7,1.2c-.7.6-1,1-1.3,1.4-.2.3-.7,1-.9,1.8-.3,1-.5,2.1-.5,2.1h1.2Z"/>
      <path class="cls-1" d="M18.5,10.6h-1.7l-3.6-3.7-2.4,3.6c-.4-2.4-.8-4.8-1.2-7.2.7-.1,1.8-.2,3,0,1.4.3,2.3.9,2.5,1,1.1.7,1.6,1.5,2,1.9.9,1.2,1.2,2.3,1.3,2.6.1.6.2,1.1.2,1.5Z"/>
      <path class="cls-1" d="M9.4,18.5c1.4-2,2.8-4,4.3-5.9l1.7,1.7h2.4c-.1.3-.4.8-.7,1.3-.2.2-.7.9-1.6,1.6-.3.2-.9.6-1.8,1-.2.1-.9.3-1.7.4-.9.1-1.5,0-1.9,0-.3,0-.5,0-.7,0h0Z"/>
      <path class="cls-1" d="M4.2,14.3h2.6l.7-1.3c.3,1.7.5,3.4.8,5.2-.3,0-.8-.3-1.3-.6-.5-.3-.8-.6-1.2-1.1-.3-.4-.7-.7-1.1-1.3-.2-.4-.4-.7-.4-.9h0Z"/>
    </g>
  </g>
</svg>