<?xml version="1.0" encoding="UTF-8"?>
<svg id="Capa_1" data-name="Capa 1" xmlns="http://www.w3.org/2000/svg" viewBox="0 0 22 22">
  <defs>
    <style>
      .cls-1 {
        fill: #fff;
        stroke-width: 0px;
      }
    </style>
  </defs>
  <polygon class="cls-1" points="2.39 11.52 5.28 11.53 8.73 4.42 10.12 12.95 13.34 8.49 16.65 11.53 19.62 11.53 19.62 13.45 15.77 13.45 13.51 11.13 9.2 17.18 8.03 9.98 6.29 13.33 2.38 13.33 2.39 11.52"/>
  <path class="cls-1" d="M4.65,10.63l3.24-6.63s-.89.53-1.72,1.25c-.71.62-1.02,1-1.3,1.45-.21.34-.68,1.02-.93,1.8-.33,1.02-.47,2.13-.47,2.13h1.18Z"/>
  <path class="cls-1" d="M18.55,10.61h-1.67l-3.65-3.65-2.4,3.63c-.41-2.39-.81-4.77-1.22-7.16.71-.11,1.78-.19,3.02.1,1.37.31,2.29.9,2.47,1.03,1.05.7,1.64,1.5,1.96,1.95.86,1.2,1.17,2.32,1.26,2.64.15.59.21,1.09.23,1.46Z"/>
  <path class="cls-1" d="M9.39,18.53c1.42-1.98,2.84-3.97,4.26-5.95l1.7,1.74h2.44c-.15.34-.37.8-.71,1.28-.17.24-.68.93-1.55,1.58-.29.22-.91.64-1.78.98-.25.1-.89.32-1.74.44-.86.11-1.54.06-1.92.03-.29-.03-.53-.06-.7-.09h0Z"/>
  <path class="cls-1" d="M4.24,14.27h2.57l.68-1.27c.28,1.72.55,3.44.83,5.16-.33-.09-.81-.26-1.33-.59-.51-.32-.82-.64-1.25-1.09-.35-.36-.7-.73-1.05-1.31-.22-.36-.36-.68-.45-.91h0Z"/>
</svg>